<svg version="1.1" viewBox="0.0 0.0 256.0 256.0" fill="none" stroke="none" stroke-linecap="square" stroke-miterlimit="10" xmlns:xlink="http://www.w3.org/1999/xlink" xmlns="http://www.w3.org/2000/svg"><clipPath id="p.0"><path d="m0 0l256.0 0l0 256.0l-256.0 0l0 -256.0z" clip-rule="nonzero"/></clipPath><g clip-path="url(#p.0)"><path fill="#000000" fill-opacity="0.0" d="m0 0l256.0 0l0 256.0l-256.0 0z" fill-rule="evenodd"/><path fill="#e69138" d="m0 0l256.0 0l0 256.0l-256.0 0z" fill-rule="evenodd"/><path fill="#000000" fill-opacity="0.0" d="m-4.0577426 170.77165l334.99213 0l0 38.771652l-334.99213 0z" fill-rule="evenodd"/><path fill="#cccccc" d="m5.7078824 190.56915l7.0937495 -3.953125q0.171875 -0.09375 0.265625 -0.09375q0.125 0 0.21875 0.109375q0.109375 0.09375 0.109375 0.21875q0 0.203125 -0.265625 0.34375l-6.0781245 3.375l6.0624995 3.375q0.265625 0.15625 0.265625 0.34375q0 0.140625 -0.09375 0.234375q-0.09375 0.09375 -0.234375 0.09375q-0.078125 0 -0.25 -0.09375l-7.0937495 -3.953125zm10.6484375 -2.203125l0 0.65625q0.84375 -0.890625 1.6875 -0.890625q0.5 0 0.875 0.265625q0.390625 0.265625 0.65625 0.8125q0.4375 -0.546875 0.875 -0.8125q0.453125 -0.265625 0.90625 -0.265625q0.71875 0 1.140625 0.453125q0.546875 0.59375 0.546875 1.296875l0 4.59375l0.5625 0q0.234375 0 0.328125 0.09375q0.109375 0.078125 0.109375 0.234375q0 0.140625 -0.109375 0.234375q-0.09375 0.09375 -0.328125 0.09375l-1.21875 0l0 -5.1875q0 -0.5 -0.3125 -0.828125q-0.296875 -0.328125 -0.6875 -0.328125q-0.359375 0 -0.765625 0.28125q-0.390625 0.265625 -0.90625 1.046875l0 4.359375l0.546875 0q0.234375 0 0.328125 0.09375q0.109375 0.078125 0.109375 0.234375q0 0.140625 -0.109375 0.234375q-0.09375 0.09375 -0.328125 0.09375l-1.203125 0l0 -5.140625q0 -0.515625 -0.3125 -0.859375q-0.3125 -0.34375 -0.6875 -0.34375q-0.359375 0 -0.703125 0.234375q-0.46875 0.3125 -1.0 1.09375l0 4.359375l0.5625 0q0.234375 0 0.328125 0.09375q0.109375 0.078125 0.109375 0.234375q0 0.140625 -0.109375 0.234375q-0.09375 0.09375 -0.328125 0.09375l-1.765625 0q-0.234375 0 -0.34375 -0.09375q-0.09375 -0.09375 -0.09375 -0.234375q0 -0.15625 0.09375 -0.234375q0.109375 -0.09375 0.34375 -0.09375l0.546875 0l0 -5.453125l-0.546875 0q-0.234375 0 -0.34375 -0.09375q-0.09375 -0.09375 -0.09375 -0.234375q0 -0.140625 0.09375 -0.234375q0.109375 -0.09375 0.34375 -0.09375l1.203125 0zm16.148438 3.53125l-6.6875 0q0.171875 1.28125 1.0625 2.0625q0.890625 0.765625 2.21875 0.765625q0.734375 0 1.53125 -0.234375q0.8125 -0.25 1.3125 -0.640625q0.15625 -0.125 0.265625 -0.125q0.125 0 0.21875 0.109375q0.09375 0.09375 0.09375 0.21875q0 0.140625 -0.125 0.265625q-0.375 0.390625 -1.34375 0.734375q-0.953125 0.34375 -1.953125 0.34375q-1.6875 0 -2.828125 -1.109375q-1.125 -1.109375 -1.125 -2.6875q0 -1.421875 1.0625 -2.4375q1.0625 -1.03125 2.625 -1.03125q1.609375 0 2.640625 1.046875q1.046875 1.046875 1.03125 2.71875zm-0.671875 -0.65625q-0.1875 -1.09375 -1.03125 -1.765625q-0.828125 -0.6875 -1.96875 -0.6875q-1.15625 0 -1.984375 0.671875q-0.828125 0.671875 -1.03125 1.78125l6.015625 0zm5.3671875 -2.875l3.5625 0q0.234375 0 0.328125 0.09375q0.109375 0.09375 0.109375 0.234375q0 0.140625 -0.109375 0.234375q-0.09375 0.09375 -0.328125 0.09375l-3.5625 0l0 4.375q0 0.5625 0.453125 0.953125q0.46875 0.375 1.34375 0.375q0.671875 0 1.4375 -0.1875q0.78125 -0.203125 1.203125 -0.453125q0.15625 -0.109375 0.265625 -0.109375q0.125 0 0.21875 0.109375q0.09375 0.09375 0.09375 0.21875q0 0.125 -0.109375 0.21875q-0.25 0.265625 -1.21875 0.578125q-0.953125 0.296875 -1.84375 0.296875q-1.140625 0 -1.828125 -0.546875q-0.671875 -0.546875 -0.671875 -1.453125l0 -4.375l-1.21875 0q-0.234375 0 -0.34375 -0.09375q-0.09375 -0.09375 -0.09375 -0.234375q0 -0.140625 0.09375 -0.234375q0.109375 -0.09375 0.34375 -0.09375l1.21875 0l0 -1.9375q0 -0.234375 0.09375 -0.328125q0.09375 -0.109375 0.234375 -0.109375q0.140625 0 0.234375 0.109375q0.09375 0.09375 0.09375 0.328125l0 1.9375zm12.8359375 6.765625l0 -0.953125q-1.421875 1.21875 -3.046875 1.21875q-1.1875 0 -1.859375 -0.59375q-0.65625 -0.609375 -0.65625 -1.484375q0 -0.953125 0.875 -1.65625q0.875 -0.71875 2.5625 -0.71875q0.453125 0 0.984375 0.0625q0.53125 0.0625 1.140625 0.1875l0 -1.0625q0 -0.546875 -0.5 -0.9375q-0.5 -0.40625 -1.5 -0.40625q-0.765625 0 -2.140625 0.453125q-0.25 0.078125 -0.328125 0.078125q-0.125 0 -0.21875 -0.09375q-0.078125 -0.09375 -0.078125 -0.234375q0 -0.140625 0.078125 -0.21875q0.109375 -0.109375 0.875 -0.3125q1.21875 -0.328125 1.84375 -0.328125q1.25 0 1.9375 0.609375q0.703125 0.609375 0.703125 1.390625l0 4.34375l0.875 0q0.234375 0 0.328125 0.09375q0.109375 0.078125 0.109375 0.234375q0 0.140625 -0.109375 0.234375q-0.09375 0.09375 -0.328125 0.09375l-1.546875 0zm0 -3.265625q-0.453125 -0.140625 -0.96875 -0.203125q-0.515625 -0.0625 -1.09375 -0.0625q-1.421875 0 -2.234375 0.625q-0.609375 0.453125 -0.609375 1.09375q0 0.59375 0.46875 1.0q0.46875 0.40625 1.359375 0.40625q0.84375 0 1.578125 -0.328125q0.734375 -0.34375 1.5 -1.09375l0 -1.4375zm14.843754 -3.5l0 1.1875q0.59375 -0.703125 1.265625 -1.0625q0.671875 -0.359375 1.578125 -0.359375q0.96875 0 1.78125 0.453125q0.828125 0.453125 1.28125 1.265625q0.453125 0.796875 0.453125 1.6875q0 1.421875 -1.015625 2.421875q-1.015625 1.0 -2.484375 1.0q-1.765625 0 -2.859375 -1.421875l0 3.953125l1.59375 0q0.234375 0 0.328125 0.09375q0.109375 0.09375 0.109375 0.234375q0 0.140625 -0.109375 0.234375q-0.09375 0.09375 -0.328125 0.09375l-3.1250038 0q-0.234375 0 -0.34375 -0.09375q-0.09375 -0.078125 -0.09375 -0.234375q0 -0.140625 0.09375 -0.234375q0.109375 -0.09375 0.34375 -0.09375l0.8750038 0l0 -8.46875l-0.8750038 0q-0.234375 0 -0.34375 -0.09375q-0.09375 -0.09375 -0.09375 -0.234375q0 -0.140625 0.09375 -0.234375q0.109375 -0.09375 0.34375 -0.09375l1.5312538 0zm5.6875 3.171875q0 -1.125 -0.828125 -1.9375q-0.8125 -0.8125 -2.0 -0.8125q-1.203125 0 -2.03125 0.8125q-0.828125 0.8125 -0.828125 1.9375q0 1.140625 0.828125 1.953125q0.828125 0.8125 2.03125 0.8125q1.171875 0 2.0 -0.8125q0.828125 -0.8125 0.828125 -1.953125zm5.6015625 -3.171875l0 1.65625q1.28125 -1.15625 1.921875 -1.484375q0.640625 -0.34375 1.171875 -0.34375q0.59375 0 1.09375 0.40625q0.5 0.390625 0.5 0.59375q0 0.140625 -0.09375 0.25q-0.09375 0.09375 -0.25 0.09375q-0.078125 0 -0.140625 -0.03125q-0.046875 -0.03125 -0.1875 -0.171875q-0.28125 -0.28125 -0.484375 -0.375q-0.203125 -0.109375 -0.390625 -0.109375q-0.4375 0 -1.046875 0.34375q-0.59375 0.34375 -2.09375 1.6875l0 3.59375l2.90625 0q0.25 0 0.34375 0.09375q0.109375 0.078125 0.109375 0.234375q0 0.140625 -0.109375 0.234375q-0.09375 0.09375 -0.34375 0.09375l-5.140625 0q-0.234375 0 -0.34375 -0.09375q-0.09375 -0.09375 -0.09375 -0.234375q0 -0.125 0.09375 -0.21875q0.09375 -0.09375 0.34375 -0.09375l1.578125 0l0 -5.46875l-1.203125 0q-0.234375 0 -0.34375 -0.09375q-0.09375 -0.09375 -0.09375 -0.234375q0 -0.140625 0.09375 -0.234375q0.09375 -0.09375 0.34375 -0.09375l1.859375 0zm14.0546875 3.390625q0 1.5 -1.078125 2.578125q-1.0625 1.0625 -2.578125 1.0625q-1.53125 0 -2.609375 -1.0625q-1.0625 -1.078125 -1.0625 -2.578125q0 -1.5 1.0625 -2.5625q1.078125 -1.0625 2.609375 -1.0625q1.515625 0 2.578125 1.0625q1.078125 1.0625 1.078125 2.5625zm-0.65625 0q0 -1.234375 -0.890625 -2.09375q-0.875 -0.875 -2.125 -0.875q-1.25 0 -2.125 0.875q-0.875 0.875 -0.875 2.09375q0 1.21875 0.875 2.09375q0.875 0.875 2.125 0.875q1.25 0 2.125 -0.859375q0.890625 -0.875 0.890625 -2.109375zm4.1171875 -3.390625l0 1.1875q0.59375 -0.703125 1.265625 -1.0625q0.671875 -0.359375 1.578125 -0.359375q0.96875 0 1.78125 0.453125q0.828125 0.453125 1.28125 1.265625q0.453125 0.796875 0.453125 1.6875q0 1.421875 -1.015625 2.421875q-1.015625 1.0 -2.484375 1.0q-1.765625 0 -2.859375 -1.421875l0 3.953125l1.59375 0q0.234375 0 0.328125 0.09375q0.109375 0.09375 0.109375 0.234375q0 0.140625 -0.109375 0.234375q-0.09375 0.09375 -0.328125 0.09375l-3.125 0q-0.234375 0 -0.34375 -0.09375q-0.09375 -0.078125 -0.09375 -0.234375q0 -0.140625 0.09375 -0.234375q0.109375 -0.09375 0.34375 -0.09375l0.875 0l0 -8.46875l-0.875 0q-0.234375 0 -0.34375 -0.09375q-0.09375 -0.09375 -0.09375 -0.234375q0 -0.140625 0.09375 -0.234375q0.109375 -0.09375 0.34375 -0.09375l1.53125 0zm5.6875 3.171875q0 -1.125 -0.828125 -1.9375q-0.8125 -0.8125 -2.0 -0.8125q-1.203125 0 -2.03125 0.8125q-0.828125 0.8125 -0.828125 1.9375q0 1.140625 0.828125 1.953125q0.828125 0.8125 2.03125 0.8125q1.171875 0 2.0 -0.8125q0.828125 -0.8125 0.828125 -1.953125zm9.9453125 0.359375l-6.6875 0q0.171875 1.28125 1.0625 2.0625q0.890625 0.765625 2.21875 0.765625q0.734375 0 1.53125 -0.234375q0.8125 -0.25 1.3125 -0.640625q0.15625 -0.125 0.265625 -0.125q0.125 0 0.21875 0.109375q0.09375 0.09375 0.09375 0.21875q0 0.140625 -0.125 0.265625q-0.375 0.390625 -1.34375 0.734375q-0.953125 0.34375 -1.953125 0.34375q-1.6875 0 -2.828125 -1.109375q-1.125 -1.109375 -1.125 -2.6875q0 -1.421875 1.0625 -2.4375q1.0625 -1.03125 2.625 -1.03125q1.609375 0 2.640625 1.046875q1.046875 1.046875 1.03125 2.71875zm-0.671875 -0.65625q-0.1875 -1.09375 -1.03125 -1.765625q-0.828125 -0.6875 -1.96875 -0.6875q-1.15625 0 -1.984375 0.671875q-0.828125 0.671875 -1.03125 1.78125l6.015625 0zm5.9296875 -2.875l0 1.65625q1.28125 -1.15625 1.921875 -1.484375q0.640625 -0.34375 1.171875 -0.34375q0.59375 0 1.09375 0.40625q0.5 0.390625 0.5 0.59375q0 0.140625 -0.09375 0.25q-0.09375 0.09375 -0.25 0.09375q-0.078125 0 -0.140625 -0.03125q-0.046875 -0.03125 -0.1875 -0.171875q-0.28125 -0.28125 -0.484375 -0.375q-0.203125 -0.109375 -0.390625 -0.109375q-0.4375 0 -1.046875 0.34375q-0.59375 0.34375 -2.09375 1.6875l0 3.59375l2.90625 0q0.25 0 0.34375 0.09375q0.109375 0.078125 0.109375 0.234375q0 0.140625 -0.109375 0.234375q-0.09375 0.09375 -0.34375 0.09375l-5.140625 0q-0.234375 0 -0.34375 -0.09375q-0.09375 -0.09375 -0.09375 -0.234375q0 -0.125 0.09375 -0.21875q0.09375 -0.09375 0.34375 -0.09375l1.578125 0l0 -5.46875l-1.203125 0q-0.234375 0 -0.34375 -0.09375q-0.09375 -0.09375 -0.09375 -0.234375q0 -0.140625 0.09375 -0.234375q0.09375 -0.09375 0.34375 -0.09375l1.859375 0zm9.0390625 0l3.5625 0q0.234375 0 0.328125 0.09375q0.109375 0.09375 0.109375 0.234375q0 0.140625 -0.109375 0.234375q-0.09375 0.09375 -0.328125 0.09375l-3.5625 0l0 4.375q0 0.5625 0.453125 0.953125q0.46875 0.375 1.34375 0.375q0.671875 0 1.4375 -0.1875q0.78125 -0.203125 1.203125 -0.453125q0.15625 -0.109375 0.265625 -0.109375q0.125 0 0.21875 0.109375q0.09375 0.09375 0.09375 0.21875q0 0.125 -0.109375 0.21875q-0.25 0.265625 -1.21875 0.578125q-0.953125 0.296875 -1.84375 0.296875q-1.140625 0 -1.828125 -0.546875q-0.671875 -0.546875 -0.671875 -1.453125l0 -4.375l-1.21875 0q-0.234375 0 -0.34375 -0.09375q-0.09375 -0.09375 -0.09375 -0.234375q0 -0.140625 0.09375 -0.234375q0.109375 -0.09375 0.34375 -0.09375l1.21875 0l0 -1.9375q0 -0.234375 0.09375 -0.328125q0.09375 -0.109375 0.234375 -0.109375q0.140625 0 0.234375 0.109375q0.09375 0.09375 0.09375 0.328125l0 1.9375zm10.9921875 6.765625l-3.046875 -6.109375l-0.1875 0q-0.234375 0 -0.34375 -0.09375q-0.09375 -0.09375 -0.09375 -0.234375q0 -0.09375 0.046875 -0.171875q0.046875 -0.09375 0.125 -0.125q0.09375 -0.03125 0.265625 -0.03125l1.796875 0q0.234375 0 0.328125 0.09375q0.109375 0.09375 0.109375 0.234375q0 0.140625 -0.109375 0.234375q-0.09375 0.09375 -0.328125 0.09375l-0.890625 0l2.6875 5.390625l2.640625 -5.390625l-0.890625 0q-0.234375 0 -0.34375 -0.09375q-0.09375 -0.09375 -0.09375 -0.234375q0 -0.140625 0.09375 -0.234375q0.109375 -0.09375 0.34375 -0.09375l1.796875 0q0.234375 0 0.328125 0.09375q0.109375 0.09375 0.109375 0.234375q0 0.109375 -0.0625 0.203125q-0.0625 0.078125 -0.140625 0.109375q-0.078125 0.015625 -0.4375 0.015625l-4.15625 8.46875l1.03125 0q0.234375 0 0.328125 0.09375q0.109375 0.09375 0.109375 0.234375q0 0.140625 -0.109375 0.234375q-0.09375 0.09375 -0.328125 0.09375l-3.78125 0q-0.234375 0 -0.34375 -0.09375q-0.09375 -0.078125 -0.09375 -0.234375q0 -0.140625 0.09375 -0.234375q0.109375 -0.09375 0.34375 -0.09375l2.046875 0l1.15625 -2.359375zm13.1484375 -5.4375l-7.15625 0q-0.234375 0 -0.34375 -0.09375q-0.09375 -0.09375 -0.09375 -0.234375q0 -0.140625 0.09375 -0.234375q0.109375 -0.09375 0.34375 -0.09375l7.15625 0q0.234375 0 0.328125 0.09375q0.109375 0.09375 0.109375 0.234375q0 0.140625 -0.109375 0.234375q-0.09375 0.09375 -0.328125 0.09375zm0 2.359375l-7.15625 0q-0.234375 0 -0.34375 -0.09375q-0.09375 -0.09375 -0.09375 -0.234375q0 -0.15625 0.09375 -0.234375q0.109375 -0.09375 0.34375 -0.09375l7.15625 0q0.234375 0 0.328125 0.09375q0.109375 0.078125 0.109375 0.234375q0 0.140625 -0.109375 0.234375q-0.09375 0.09375 -0.328125 0.09375zm3.2890625 -6.5625l2.078125 0l-0.546875 3.796875q-0.046875 0.296875 -0.171875 0.421875q-0.125 0.109375 -0.3125 0.109375q-0.203125 0 -0.328125 -0.109375q-0.125 -0.125 -0.171875 -0.421875l-0.546875 -3.796875zm3.359375 0l2.078125 0l-0.546875 3.796875q-0.046875 0.296875 -0.171875 0.421875q-0.125 0.109375 -0.3125 0.109375q-0.203125 0 -0.328125 -0.109375q-0.125 -0.125 -0.171875 -0.421875l-0.546875 -3.796875zm12.6328125 6.265625q0 1.5 -1.078125 2.578125q-1.0625 1.0625 -2.578125 1.0625q-1.53125 0 -2.609375 -1.0625q-1.0625 -1.078125 -1.0625 -2.578125q0 -1.5 1.0625 -2.5625q1.078125 -1.0625 2.609375 -1.0625q1.515625 0 2.578125 1.0625q1.078125 1.0625 1.078125 2.5625zm-0.65625 0q0 -1.234375 -0.890625 -2.09375q-0.875 -0.875 -2.125 -0.875q-1.25 0 -2.125 0.875q-0.875 0.875 -0.875 2.09375q0 1.21875 0.875 2.09375q0.875 0.875 2.125 0.875q1.25 0 2.125 -0.859375q0.890625 -0.875 0.890625 -2.109375zm8.8046875 -2.1875l0 -1.203125l1.53125 0q0.234375 0 0.328125 0.09375q0.109375 0.09375 0.109375 0.234375q0 0.140625 -0.109375 0.234375q-0.09375 0.09375 -0.328125 0.09375l-0.875 0l0 6.5625q0 0.65625 -0.28125 1.171875q-0.1875 0.34375 -0.625 0.703125q-0.4375 0.375 -0.796875 0.53125q-0.359375 0.15625 -0.96875 0.15625l-1.859375 0q-0.234375 0 -0.34375 -0.09375q-0.09375 -0.078125 -0.09375 -0.234375q0 -0.140625 0.09375 -0.234375q0.109375 -0.09375 0.34375 -0.09375l1.890625 0q0.578125 0 1.03125 -0.296875q0.46875 -0.296875 0.78125 -0.859375q0.171875 -0.328125 0.171875 -0.84375l0 -1.96875q-1.0625 1.4375 -2.71875 1.4375q-1.359375 0 -2.34375 -1.0q-0.96875 -1.0 -0.96875 -2.421875q0 -1.40625 0.96875 -2.40625q0.984375 -1.0 2.34375 -1.0q1.65625 0 2.71875 1.4375zm0 1.96875q0 -1.15625 -0.796875 -1.953125q-0.796875 -0.796875 -1.890625 -0.796875q-1.109375 0 -1.90625 0.8125q-0.78125 0.796875 -0.78125 1.9375q0 1.15625 0.78125 1.96875q0.796875 0.796875 1.90625 0.796875q1.09375 0 1.890625 -0.796875q0.796875 -0.8125 0.796875 -1.96875zm7.2578125 -3.171875l0.28125 0q0.4375 0 0.75 0.3125q0.3125 0.3125 0.3125 0.734375q0 0.46875 -0.328125 0.78125q-0.3125 0.296875 -0.734375 0.296875l-0.28125 0q-0.4375 0 -0.75 -0.3125q-0.3125 -0.3125 -0.3125 -0.75q0 -0.453125 0.3125 -0.75q0.3125 -0.3125 0.75 -0.3125zm0 4.875l0.28125 0q0.4375 0 0.75 0.3125q0.3125 0.3125 0.3125 0.75q0 0.453125 -0.328125 0.765625q-0.3125 0.296875 -0.734375 0.296875l-0.28125 0q-0.4375 0 -0.75 -0.3125q-0.3125 -0.3125 -0.3125 -0.75q0 -0.453125 0.3125 -0.75q0.3125 -0.3125 0.75 -0.3125zm10.0546875 -8.25l0 1.703125l-0.96875 0l0 -1.703125l0.96875 0zm0.03125 3.375l0 6.109375l2.578125 0q0.234375 0 0.328125 0.09375q0.109375 0.078125 0.109375 0.234375q0 0.140625 -0.109375 0.234375q-0.09375 0.09375 -0.328125 0.09375l-5.8125 0q-0.234375 0 -0.34375 -0.09375q-0.09375 -0.09375 -0.09375 -0.234375q0 -0.15625 0.09375 -0.234375q0.109375 -0.09375 0.34375 -0.09375l2.578125 0l0 -5.453125l-1.921875 0q-0.234375 0 -0.34375 -0.09375q-0.09375 -0.09375 -0.09375 -0.234375q0 -0.140625 0.09375 -0.234375q0.109375 -0.09375 0.34375 -0.09375l2.578125 0zm6.2578125 0l0 0.65625q0.84375 -0.890625 1.6875 -0.890625q0.5 0 0.875 0.265625q0.390625 0.265625 0.65625 0.8125q0.4375 -0.546875 0.875 -0.8125q0.453125 -0.265625 0.90625 -0.265625q0.71875 0 1.140625 0.453125q0.546875 0.59375 0.546875 1.296875l0 4.59375l0.5625 0q0.234375 0 0.328125 0.09375q0.109375 0.078125 0.109375 0.234375q0 0.140625 -0.109375 0.234375q-0.09375 0.09375 -0.328125 0.09375l-1.21875 0l0 -5.1875q0 -0.5 -0.3125 -0.828125q-0.296875 -0.328125 -0.6875 -0.328125q-0.359375 0 -0.765625 0.28125q-0.390625 0.265625 -0.90625 1.046875l0 4.359375l0.546875 0q0.234375 0 0.328125 0.09375q0.109375 0.078125 0.109375 0.234375q0 0.140625 -0.109375 0.234375q-0.09375 0.09375 -0.328125 0.09375l-1.203125 0l0 -5.140625q0 -0.515625 -0.3125 -0.859375q-0.3125 -0.34375 -0.6875 -0.34375q-0.359375 0 -0.703125 0.234375q-0.46875 0.3125 -1.0 1.09375l0 4.359375l0.5625 0q0.234375 0 0.328125 0.09375q0.109375 0.078125 0.109375 0.234375q0 0.140625 -0.109375 0.234375q-0.09375 0.09375 -0.328125 0.09375l-1.765625 0q-0.234375 0 -0.34375 -0.09375q-0.09375 -0.09375 -0.09375 -0.234375q0 -0.15625 0.09375 -0.234375q0.109375 -0.09375 0.34375 -0.09375l0.546875 0l0 -5.453125l-0.546875 0q-0.234375 0 -0.34375 -0.09375q-0.09375 -0.09375 -0.09375 -0.234375q0 -0.140625 0.09375 -0.234375q0.109375 -0.09375 0.34375 -0.09375l1.203125 0zm14.4765625 6.765625l0 -0.953125q-1.421875 1.21875 -3.046875 1.21875q-1.1875 0 -1.859375 -0.59375q-0.65625 -0.609375 -0.65625 -1.484375q0 -0.953125 0.875 -1.65625q0.875 -0.71875 2.5625 -0.71875q0.453125 0 0.984375 0.0625q0.53125 0.0625 1.140625 0.1875l0 -1.0625q0 -0.546875 -0.5 -0.9375q-0.5 -0.40625 -1.5 -0.40625q-0.765625 0 -2.140625 0.453125q-0.25 0.078125 -0.328125 0.078125q-0.125 0 -0.21875 -0.09375q-0.078125 -0.09375 -0.078125 -0.234375q0 -0.140625 0.078125 -0.21875q0.109375 -0.109375 0.875 -0.3125q1.21875 -0.328125 1.84375 -0.328125q1.25 0 1.9375 0.609375q0.703125 0.609375 0.703125 1.390625l0 4.34375l0.875 0q0.234375 0 0.328125 0.09375q0.109375 0.078125 0.109375 0.234375q0 0.140625 -0.109375 0.234375q-0.09375 0.09375 -0.328125 0.09375l-1.546875 0zm0 -3.265625q-0.453125 -0.140625 -0.96875 -0.203125q-0.515625 -0.0625 -1.09375 -0.0625q-1.421875 0 -2.234375 0.625q-0.609375 0.453125 -0.609375 1.09375q0 0.59375 0.46875 1.0q0.46875 0.40625 1.359375 0.40625q0.84375 0 1.578125 -0.328125q0.734375 -0.34375 1.5 -1.09375l0 -1.4375zm9.9296875 -2.296875l0 -1.203125l1.53125 0q0.234375 0 0.328125 0.09375q0.109375 0.09375 0.109375 0.234375q0 0.140625 -0.109375 0.234375q-0.09375 0.09375 -0.328125 0.09375l-0.875 0l0 6.5625q0 0.65625 -0.28125 1.171875q-0.1875 0.34375 -0.625 0.703125q-0.4375 0.375 -0.796875 0.53125q-0.359375 0.15625 -0.96875 0.15625l-1.859375 0q-0.234375 0 -0.34375 -0.09375q-0.09375 -0.078125 -0.09375 -0.234375q0 -0.140625 0.09375 -0.234375q0.109375 -0.09375 0.34375 -0.09375l1.890625 0q0.578125 0 1.03125 -0.296875q0.46875 -0.296875 0.78125 -0.859375q0.171875 -0.328125 0.171875 -0.84375l0 -1.96875q-1.0625 1.4375 -2.71875 1.4375q-1.359375 0 -2.34375 -1.0q-0.96875 -1.0 -0.96875 -2.421875q0 -1.40625 0.96875 -2.40625q0.984375 -1.0 2.34375 -1.0q1.65625 0 2.71875 1.4375zm0 1.96875q0 -1.15625 -0.796875 -1.953125q-0.796875 -0.796875 -1.890625 -0.796875q-1.109375 0 -1.90625 0.8125q-0.78125 0.796875 -0.78125 1.9375q0 1.15625 0.78125 1.96875q0.796875 0.796875 1.90625 0.796875q1.09375 0 1.890625 -0.796875q0.796875 -0.8125 0.796875 -1.96875zm10.9453125 0.359375l-6.6875 0q0.171875 1.28125 1.0625 2.0625q0.890625 0.765625 2.21875 0.765625q0.734375 0 1.53125 -0.234375q0.8125 -0.25 1.3125 -0.640625q0.15625 -0.125 0.265625 -0.125q0.125 0 0.21875 0.109375q0.09375 0.09375 0.09375 0.21875q0 0.140625 -0.125 0.265625q-0.375 0.390625 -1.34375 0.734375q-0.953125 0.34375 -1.953125 0.34375q-1.6875 0 -2.828125 -1.109375q-1.125 -1.109375 -1.125 -2.6875q0 -1.421875 1.0625 -2.4375q1.0625 -1.03125 2.625 -1.03125q1.609375 0 2.640625 1.046875q1.046875 1.046875 1.03125 2.71875zm-0.671875 -0.65625q-0.1875 -1.09375 -1.03125 -1.765625q-0.828125 -0.6875 -1.96875 -0.6875q-1.15625 0 -1.984375 0.671875q-0.828125 0.671875 -1.03125 1.78125l6.015625 0zm3.9921875 -5.75l2.078125 0l-0.546875 3.796875q-0.046875 0.296875 -0.171875 0.421875q-0.125 0.109375 -0.3125 0.109375q-0.203125 0 -0.328125 -0.109375q-0.125 -0.125 -0.171875 -0.421875l-0.546875 -3.796875zm3.359375 0l2.078125 0l-0.546875 3.796875q-0.046875 0.296875 -0.171875 0.421875q-0.125 0.109375 -0.3125 0.109375q-0.203125 0 -0.328125 -0.109375q-0.125 -0.125 -0.171875 -0.421875l-0.546875 -3.796875z" fill-rule="nonzero"/><path fill="#000000" fill-opacity="0.0" d="m-4.0577426 199.02625l334.99213 0l0 38.771652l-334.99213 0z" fill-rule="evenodd"/><path fill="#cccccc" d="m5.7078824 218.82375l7.0937495 -3.953125q0.171875 -0.09375 0.265625 -0.09375q0.125 0 0.21875 0.109375q0.109375 0.09375 0.109375 0.21875q0 0.203125 -0.265625 0.34375l-6.0781245 3.375l6.0624995 3.375q0.265625 0.15625 0.265625 0.34375q0 0.140625 -0.09375 0.234375q-0.09375 0.09375 -0.234375 0.09375q-0.078125 0 -0.25 -0.09375l-7.0937495 -3.953125zm10.6484375 -2.203125l0 0.65625q0.84375 -0.890625 1.6875 -0.890625q0.5 0 0.875 0.265625q0.390625 0.265625 0.65625 0.8125q0.4375 -0.546875 0.875 -0.8125q0.453125 -0.265625 0.90625 -0.265625q0.71875 0 1.140625 0.453125q0.546875 0.59375 0.546875 1.296875l0 4.59375l0.5625 0q0.234375 0 0.328125 0.09375q0.109375 0.078125 0.109375 0.234375q0 0.140625 -0.109375 0.234375q-0.09375 0.09375 -0.328125 0.09375l-1.21875 0l0 -5.1875q0 -0.5 -0.3125 -0.828125q-0.296875 -0.328125 -0.6875 -0.328125q-0.359375 0 -0.765625 0.28125q-0.390625 0.265625 -0.90625 1.046875l0 4.359375l0.546875 0q0.234375 0 0.328125 0.09375q0.109375 0.078125 0.109375 0.234375q0 0.140625 -0.109375 0.234375q-0.09375 0.09375 -0.328125 0.09375l-1.203125 0l0 -5.140625q0 -0.515625 -0.3125 -0.859375q-0.3125 -0.34375 -0.6875 -0.34375q-0.359375 0 -0.703125 0.234375q-0.46875 0.3125 -1.0 1.09375l0 4.359375l0.5625 0q0.234375 0 0.328125 0.09375q0.109375 0.078125 0.109375 0.234375q0 0.140625 -0.109375 0.234375q-0.09375 0.09375 -0.328125 0.09375l-1.765625 0q-0.234375 0 -0.34375 -0.09375q-0.09375 -0.09375 -0.09375 -0.234375q0 -0.15625 0.09375 -0.234375q0.109375 -0.09375 0.34375 -0.09375l0.546875 0l0 -5.453125l-0.546875 0q-0.234375 0 -0.34375 -0.09375q-0.09375 -0.09375 -0.09375 -0.234375q0 -0.140625 0.09375 -0.234375q0.109375 -0.09375 0.34375 -0.09375l1.203125 0zm16.148438 3.53125l-6.6875 0q0.171875 1.28125 1.0625 2.0625q0.890625 0.765625 2.21875 0.765625q0.734375 0 1.53125 -0.234375q0.8125 -0.25 1.3125 -0.640625q0.15625 -0.125 0.265625 -0.125q0.125 0 0.21875 0.109375q0.09375 0.09375 0.09375 0.21875q0 0.140625 -0.125 0.265625q-0.375 0.390625 -1.34375 0.734375q-0.953125 0.34375 -1.953125 0.34375q-1.6875 0 -2.828125 -1.109375q-1.125 -1.109375 -1.125 -2.6875q0 -1.421875 1.0625 -2.4375q1.0625 -1.03125 2.625 -1.03125q1.609375 0 2.640625 1.046875q1.046875 1.046875 1.03125 2.71875zm-0.671875 -0.65625q-0.1875 -1.09375 -1.03125 -1.765625q-0.828125 -0.6875 -1.96875 -0.6875q-1.15625 0 -1.984375 0.671875q-0.828125 0.671875 -1.03125 1.78125l6.015625 0zm5.3671875 -2.875l3.5625 0q0.234375 0 0.328125 0.09375q0.109375 0.09375 0.109375 0.234375q0 0.140625 -0.109375 0.234375q-0.09375 0.09375 -0.328125 0.09375l-3.5625 0l0 4.375q0 0.5625 0.453125 0.953125q0.46875 0.375 1.34375 0.375q0.671875 0 1.4375 -0.1875q0.78125 -0.203125 1.203125 -0.453125q0.15625 -0.109375 0.265625 -0.109375q0.125 0 0.21875 0.109375q0.09375 0.09375 0.09375 0.21875q0 0.125 -0.109375 0.21875q-0.25 0.265625 -1.21875 0.578125q-0.953125 0.296875 -1.84375 0.296875q-1.140625 0 -1.828125 -0.546875q-0.671875 -0.546875 -0.671875 -1.453125l0 -4.375l-1.21875 0q-0.234375 0 -0.34375 -0.09375q-0.09375 -0.09375 -0.09375 -0.234375q0 -0.140625 0.09375 -0.234375q0.109375 -0.09375 0.34375 -0.09375l1.21875 0l0 -1.9375q0 -0.234375 0.09375 -0.328125q0.09375 -0.109375 0.234375 -0.109375q0.140625 0 0.234375 0.109375q0.09375 0.09375 0.09375 0.328125l0 1.9375zm12.8359375 6.765625l0 -0.953125q-1.421875 1.21875 -3.046875 1.21875q-1.1875 0 -1.859375 -0.59375q-0.65625 -0.609375 -0.65625 -1.484375q0 -0.953125 0.875 -1.65625q0.875 -0.71875 2.5625 -0.71875q0.453125 0 0.984375 0.0625q0.53125 0.0625 1.140625 0.1875l0 -1.0625q0 -0.546875 -0.5 -0.9375q-0.5 -0.40625 -1.5 -0.40625q-0.765625 0 -2.140625 0.453125q-0.25 0.078125 -0.328125 0.078125q-0.125 0 -0.21875 -0.09375q-0.078125 -0.09375 -0.078125 -0.234375q0 -0.140625 0.078125 -0.21875q0.109375 -0.109375 0.875 -0.3125q1.21875 -0.328125 1.84375 -0.328125q1.25 0 1.9375 0.609375q0.703125 0.609375 0.703125 1.390625l0 4.34375l0.875 0q0.234375 0 0.328125 0.09375q0.109375 0.078125 0.109375 0.234375q0 0.140625 -0.109375 0.234375q-0.09375 0.09375 -0.328125 0.09375l-1.546875 0zm0 -3.265625q-0.453125 -0.140625 -0.96875 -0.203125q-0.515625 -0.0625 -1.09375 -0.0625q-1.421875 0 -2.234375 0.625q-0.609375 0.453125 -0.609375 1.09375q0 0.59375 0.46875 1.0q0.46875 0.40625 1.359375 0.40625q0.84375 0 1.578125 -0.328125q0.734375 -0.34375 1.5 -1.09375l0 -1.4375zm15.203129 -3.5l0 0.984375q0.6875 -0.6875 1.234375 -0.953125q0.5625 -0.265625 1.25 -0.265625q0.75 0 1.375 0.3125q0.4375 0.234375 0.78125 0.78125q0.359375 0.546875 0.359375 1.109375l0 4.140625l0.5625 0q0.234375 0 0.328125 0.09375q0.109375 0.078125 0.109375 0.234375q0 0.140625 -0.109375 0.234375q-0.09375 0.09375 -0.328125 0.09375l-1.765625 0q-0.234375 0 -0.34375 -0.09375q-0.09375 -0.09375 -0.09375 -0.234375q0 -0.15625 0.09375 -0.234375q0.109375 -0.09375 0.34375 -0.09375l0.546875 0l0 -4.03125q0 -0.6875 -0.515625 -1.171875q-0.5 -0.484375 -1.34375 -0.484375q-0.65625 0 -1.140625 0.265625q-0.46875 0.265625 -1.34375 1.296875l0 4.125l0.734375 0q0.234375 0 0.328125 0.09375q0.109375 0.078125 0.109375 0.234375q0 0.140625 -0.109375 0.234375q-0.09375 0.09375 -0.328125 0.09375l-2.1406288 0q-0.234375 0 -0.34375 -0.09375q-0.09375 -0.09375 -0.09375 -0.234375q0 -0.15625 0.09375 -0.234375q0.109375 -0.09375 0.34375 -0.09375l0.7500038 0l0 -5.453125l-0.5625 0q-0.23437881 0 -0.3437538 -0.09375q-0.09375 -0.09375 -0.09375 -0.234375q0 -0.140625 0.09375 -0.234375q0.109375 -0.09375 0.3437538 -0.09375l1.21875 0zm13.6015625 6.765625l0 -0.953125q-1.421875 1.21875 -3.046875 1.21875q-1.1875 0 -1.859375 -0.59375q-0.65625 -0.609375 -0.65625 -1.484375q0 -0.953125 0.875 -1.65625q0.875 -0.71875 2.5625 -0.71875q0.453125 0 0.984375 0.0625q0.53125 0.0625 1.140625 0.1875l0 -1.0625q0 -0.546875 -0.5 -0.9375q-0.5 -0.40625 -1.5 -0.40625q-0.765625 0 -2.140625 0.453125q-0.25 0.078125 -0.328125 0.078125q-0.125 0 -0.21875 -0.09375q-0.078125 -0.09375 -0.078125 -0.234375q0 -0.140625 0.078125 -0.21875q0.109375 -0.109375 0.875 -0.3125q1.21875 -0.328125 1.84375 -0.328125q1.25 0 1.9375 0.609375q0.703125 0.609375 0.703125 1.390625l0 4.34375l0.875 0q0.234375 0 0.328125 0.09375q0.109375 0.078125 0.109375 0.234375q0 0.140625 -0.109375 0.234375q-0.09375 0.09375 -0.328125 0.09375l-1.546875 0zm0 -3.265625q-0.453125 -0.140625 -0.96875 -0.203125q-0.515625 -0.0625 -1.09375 -0.0625q-1.421875 0 -2.234375 0.625q-0.609375 0.453125 -0.609375 1.09375q0 0.59375 0.46875 1.0q0.46875 0.40625 1.359375 0.40625q0.84375 0 1.578125 -0.328125q0.734375 -0.34375 1.5 -1.09375l0 -1.4375zm4.7265625 -3.5l0 0.65625q0.84375 -0.890625 1.6875 -0.890625q0.5 0 0.875 0.265625q0.390625 0.265625 0.65625 0.8125q0.4375 -0.546875 0.875 -0.8125q0.453125 -0.265625 0.90625 -0.265625q0.71875 0 1.140625 0.453125q0.546875 0.59375 0.546875 1.296875l0 4.59375l0.5625 0q0.234375 0 0.328125 0.09375q0.109375 0.078125 0.109375 0.234375q0 0.140625 -0.109375 0.234375q-0.09375 0.09375 -0.328125 0.09375l-1.21875 0l0 -5.1875q0 -0.5 -0.3125 -0.828125q-0.296875 -0.328125 -0.6875 -0.328125q-0.359375 0 -0.765625 0.28125q-0.390625 0.265625 -0.90625 1.046875l0 4.359375l0.546875 0q0.234375 0 0.328125 0.09375q0.109375 0.078125 0.109375 0.234375q0 0.140625 -0.109375 0.234375q-0.09375 0.09375 -0.328125 0.09375l-1.203125 0l0 -5.140625q0 -0.515625 -0.3125 -0.859375q-0.3125 -0.34375 -0.6875 -0.34375q-0.359375 0 -0.703125 0.234375q-0.46875 0.3125 -1.0 1.09375l0 4.359375l0.5625 0q0.234375 0 0.328125 0.09375q0.109375 0.078125 0.109375 0.234375q0 0.140625 -0.109375 0.234375q-0.09375 0.09375 -0.328125 0.09375l-1.765625 0q-0.234375 0 -0.34375 -0.09375q-0.09375 -0.09375 -0.09375 -0.234375q0 -0.15625 0.09375 -0.234375q0.109375 -0.09375 0.34375 -0.09375l0.546875 0l0 -5.453125l-0.546875 0q-0.234375 0 -0.34375 -0.09375q-0.09375 -0.09375 -0.09375 -0.234375q0 -0.140625 0.09375 -0.234375q0.109375 -0.09375 0.34375 -0.09375l1.203125 0zm16.148438 3.53125l-6.6875 0q0.171875 1.28125 1.0625 2.0625q0.890625 0.765625 2.21875 0.765625q0.734375 0 1.53125 -0.234375q0.8125 -0.25 1.3125 -0.640625q0.15625 -0.125 0.265625 -0.125q0.125 0 0.21875 0.109375q0.09375 0.09375 0.09375 0.21875q0 0.140625 -0.125 0.265625q-0.375 0.390625 -1.34375 0.734375q-0.953125 0.34375 -1.953125 0.34375q-1.6875 0 -2.828125 -1.109375q-1.125 -1.109375 -1.125 -2.6875q0 -1.421875 1.0625 -2.4375q1.0625 -1.03125 2.625 -1.03125q1.609375 0 2.640625 1.046875q1.046875 1.046875 1.03125 2.71875zm-0.671875 -0.65625q-0.1875 -1.09375 -1.03125 -1.765625q-0.828125 -0.6875 -1.96875 -0.6875q-1.15625 0 -1.984375 0.671875q-0.828125 0.671875 -1.03125 1.78125l6.015625 0zm10.3046875 -1.546875l-7.15625 0q-0.234375 0 -0.34375 -0.09375q-0.09375 -0.09375 -0.09375 -0.234375q0 -0.140625 0.09375 -0.234375q0.109375 -0.09375 0.34375 -0.09375l7.15625 0q0.234375 0 0.328125 0.09375q0.109375 0.09375 0.109375 0.234375q0 0.140625 -0.109375 0.234375q-0.09375 0.09375 -0.328125 0.09375zm0 2.359375l-7.15625 0q-0.234375 0 -0.34375 -0.09375q-0.09375 -0.09375 -0.09375 -0.234375q0 -0.15625 0.09375 -0.234375q0.109375 -0.09375 0.34375 -0.09375l7.15625 0q0.234375 0 0.328125 0.09375q0.109375 0.078125 0.109375 0.234375q0 0.140625 -0.109375 0.234375q-0.09375 0.09375 -0.328125 0.09375zm3.2890625 -6.5625l2.078125 0l-0.546875 3.796875q-0.046875 0.296875 -0.171875 0.421875q-0.125 0.109375 -0.3125 0.109375q-0.203125 0 -0.328125 -0.109375q-0.125 -0.125 -0.171875 -0.421875l-0.546875 -3.796875zm3.359375 0l2.078125 0l-0.546875 3.796875q-0.046875 0.296875 -0.171875 0.421875q-0.125 0.109375 -0.3125 0.109375q-0.203125 0 -0.328125 -0.109375q-0.125 -0.125 -0.171875 -0.421875l-0.546875 -3.796875zm7.6171875 2.875l3.5625 0q0.234375 0 0.328125 0.09375q0.109375 0.09375 0.109375 0.234375q0 0.140625 -0.109375 0.234375q-0.09375 0.09375 -0.328125 0.09375l-3.5625 0l0 4.375q0 0.5625 0.453125 0.953125q0.46875 0.375 1.34375 0.375q0.671875 0 1.4375 -0.1875q0.78125 -0.203125 1.203125 -0.453125q0.15625 -0.109375 0.265625 -0.109375q0.125 0 0.21875 0.109375q0.09375 0.09375 0.09375 0.21875q0 0.125 -0.109375 0.21875q-0.25 0.265625 -1.21875 0.578125q-0.953125 0.296875 -1.84375 0.296875q-1.140625 0 -1.828125 -0.546875q-0.671875 -0.546875 -0.671875 -1.453125l0 -4.375l-1.21875 0q-0.234375 0 -0.34375 -0.09375q-0.09375 -0.09375 -0.09375 -0.234375q0 -0.140625 0.09375 -0.234375q0.109375 -0.09375 0.34375 -0.09375l1.21875 0l0 -1.9375q0 -0.234375 0.09375 -0.328125q0.09375 -0.109375 0.234375 -0.109375q0.140625 0 0.234375 0.109375q0.09375 0.09375 0.09375 0.328125l0 1.9375zm13.2109375 6.765625l-0.8125 0.015625l-1.4375 -4.234375l-1.4375 4.234375l-0.8125 -0.015625l-1.359375 -6.109375l-0.328125 0q-0.234375 0 -0.34375 -0.09375q-0.09375 -0.09375 -0.09375 -0.234375q0 -0.140625 0.09375 -0.234375q0.109375 -0.09375 0.34375 -0.09375l1.8125 0q0.234375 0 0.328125 0.09375q0.109375 0.09375 0.109375 0.234375q0 0.140625 -0.109375 0.234375q-0.09375 0.09375 -0.328125 0.09375l-0.84375 0l1.171875 5.203125l1.390625 -4.15625l0.78125 0l1.4375 4.15625l1.125 -5.203125l-0.828125 0q-0.234375 0 -0.34375 -0.09375q-0.109375 -0.09375 -0.109375 -0.234375q0 -0.140625 0.09375 -0.234375q0.109375 -0.09375 0.359375 -0.09375l1.796875 0q0.234375 0 0.328125 0.09375q0.109375 0.09375 0.109375 0.234375q0 0.140625 -0.109375 0.234375q-0.09375 0.09375 -0.328125 0.09375l-0.3125 0l-1.34375 6.109375zm7.6640625 -10.140625l0 1.703125l-0.96875 0l0 -1.703125l0.96875 0zm0.03125 3.375l0 6.109375l2.578125 0q0.234375 0 0.328125 0.09375q0.109375 0.078125 0.109375 0.234375q0 0.140625 -0.109375 0.234375q-0.09375 0.09375 -0.328125 0.09375l-5.8125 0q-0.234375 0 -0.34375 -0.09375q-0.09375 -0.09375 -0.09375 -0.234375q0 -0.15625 0.09375 -0.234375q0.109375 -0.09375 0.34375 -0.09375l2.578125 0l0 -5.453125l-1.921875 0q-0.234375 0 -0.34375 -0.09375q-0.09375 -0.09375 -0.09375 -0.234375q0 -0.140625 0.09375 -0.234375q0.109375 -0.09375 0.34375 -0.09375l2.578125 0zm7.8984375 0l3.5625 0q0.234375 0 0.328125 0.09375q0.109375 0.09375 0.109375 0.234375q0 0.140625 -0.109375 0.234375q-0.09375 0.09375 -0.328125 0.09375l-3.5625 0l0 4.375q0 0.5625 0.453125 0.953125q0.46875 0.375 1.34375 0.375q0.671875 0 1.4375 -0.1875q0.78125 -0.203125 1.203125 -0.453125q0.15625 -0.109375 0.265625 -0.109375q0.125 0 0.21875 0.109375q0.09375 0.09375 0.09375 0.21875q0 0.125 -0.109375 0.21875q-0.25 0.265625 -1.21875 0.578125q-0.953125 0.296875 -1.84375 0.296875q-1.140625 0 -1.828125 -0.546875q-0.671875 -0.546875 -0.671875 -1.453125l0 -4.375l-1.21875 0q-0.234375 0 -0.34375 -0.09375q-0.09375 -0.09375 -0.09375 -0.234375q0 -0.140625 0.09375 -0.234375q0.109375 -0.09375 0.34375 -0.09375l1.21875 0l0 -1.9375q0 -0.234375 0.09375 -0.328125q0.09375 -0.109375 0.234375 -0.109375q0.140625 0 0.234375 0.109375q0.09375 0.09375 0.09375 0.328125l0 1.9375zm9.6015625 0l3.5625 0q0.234375 0 0.328125 0.09375q0.109375 0.09375 0.109375 0.234375q0 0.140625 -0.109375 0.234375q-0.09375 0.09375 -0.328125 0.09375l-3.5625 0l0 4.375q0 0.5625 0.453125 0.953125q0.46875 0.375 1.34375 0.375q0.671875 0 1.4375 -0.1875q0.78125 -0.203125 1.203125 -0.453125q0.15625 -0.109375 0.265625 -0.109375q0.125 0 0.21875 0.109375q0.09375 0.09375 0.09375 0.21875q0 0.125 -0.109375 0.21875q-0.25 0.265625 -1.21875 0.578125q-0.953125 0.296875 -1.84375 0.296875q-1.140625 0 -1.828125 -0.546875q-0.671875 -0.546875 -0.671875 -1.453125l0 -4.375l-1.21875 0q-0.234375 0 -0.34375 -0.09375q-0.09375 -0.09375 -0.09375 -0.234375q0 -0.140625 0.09375 -0.234375q0.109375 -0.09375 0.34375 -0.09375l1.21875 0l0 -1.9375q0 -0.234375 0.09375 -0.328125q0.09375 -0.109375 0.234375 -0.109375q0.140625 0 0.234375 0.109375q0.09375 0.09375 0.09375 0.328125l0 1.9375zm14.5078125 3.53125l-6.6875 0q0.171875 1.28125 1.0625 2.0625q0.890625 0.765625 2.21875 0.765625q0.734375 0 1.53125 -0.234375q0.8125 -0.25 1.3125 -0.640625q0.15625 -0.125 0.265625 -0.125q0.125 0 0.21875 0.109375q0.09375 0.09375 0.09375 0.21875q0 0.140625 -0.125 0.265625q-0.375 0.390625 -1.34375 0.734375q-0.953125 0.34375 -1.953125 0.34375q-1.6875 0 -2.828125 -1.109375q-1.125 -1.109375 -1.125 -2.6875q0 -1.421875 1.0625 -2.4375q1.0625 -1.03125 2.625 -1.03125q1.609375 0 2.640625 1.046875q1.046875 1.046875 1.03125 2.71875zm-0.671875 -0.65625q-0.1875 -1.09375 -1.03125 -1.765625q-0.828125 -0.6875 -1.96875 -0.6875q-1.15625 0 -1.984375 0.671875q-0.828125 0.671875 -1.03125 1.78125l6.015625 0zm5.9296875 -2.875l0 1.65625q1.28125 -1.15625 1.921875 -1.484375q0.640625 -0.34375 1.171875 -0.34375q0.59375 0 1.09375 0.40625q0.5 0.390625 0.5 0.59375q0 0.140625 -0.09375 0.25q-0.09375 0.09375 -0.25 0.09375q-0.078125 0 -0.140625 -0.03125q-0.046875 -0.03125 -0.1875 -0.171875q-0.28125 -0.28125 -0.484375 -0.375q-0.203125 -0.109375 -0.390625 -0.109375q-0.4375 0 -1.046875 0.34375q-0.59375 0.34375 -2.09375 1.6875l0 3.59375l2.90625 0q0.25 0 0.34375 0.09375q0.109375 0.078125 0.109375 0.234375q0 0.140625 -0.109375 0.234375q-0.09375 0.09375 -0.34375 0.09375l-5.140625 0q-0.234375 0 -0.34375 -0.09375q-0.09375 -0.09375 -0.09375 -0.234375q0 -0.125 0.09375 -0.21875q0.09375 -0.09375 0.34375 -0.09375l1.578125 0l0 -5.46875l-1.203125 0q-0.234375 0 -0.34375 -0.09375q-0.09375 -0.09375 -0.09375 -0.234375q0 -0.140625 0.09375 -0.234375q0.09375 -0.09375 0.34375 -0.09375l1.859375 0zm10.2578125 0l0.28125 0q0.4375 0 0.75 0.3125q0.3125 0.3125 0.3125 0.734375q0 0.46875 -0.328125 0.78125q-0.3125 0.296875 -0.734375 0.296875l-0.28125 0q-0.4375 0 -0.75 -0.3125q-0.3125 -0.3125 -0.3125 -0.75q0 -0.453125 0.3125 -0.75q0.3125 -0.3125 0.75 -0.3125zm0 4.875l0.28125 0q0.4375 0 0.75 0.3125q0.3125 0.3125 0.3125 0.75q0 0.453125 -0.328125 0.765625q-0.3125 0.296875 -0.734375 0.296875l-0.28125 0q-0.4375 0 -0.75 -0.3125q-0.3125 -0.3125 -0.3125 -0.75q0 -0.453125 0.3125 -0.75q0.3125 -0.3125 0.75 -0.3125zm10.0546875 -8.25l0 1.703125l-0.96875 0l0 -1.703125l0.96875 0zm0.03125 3.375l0 6.109375l2.578125 0q0.234375 0 0.328125 0.09375q0.109375 0.078125 0.109375 0.234375q0 0.140625 -0.109375 0.234375q-0.09375 0.09375 -0.328125 0.09375l-5.8125 0q-0.234375 0 -0.34375 -0.09375q-0.09375 -0.09375 -0.09375 -0.234375q0 -0.15625 0.09375 -0.234375q0.109375 -0.09375 0.34375 -0.09375l2.578125 0l0 -5.453125l-1.921875 0q-0.234375 0 -0.34375 -0.09375q-0.09375 -0.09375 -0.09375 -0.234375q0 -0.140625 0.09375 -0.234375q0.109375 -0.09375 0.34375 -0.09375l2.578125 0zm6.2578125 0l0 0.65625q0.84375 -0.890625 1.6875 -0.890625q0.5 0 0.875 0.265625q0.390625 0.265625 0.65625 0.8125q0.4375 -0.546875 0.875 -0.8125q0.453125 -0.265625 0.90625 -0.265625q0.71875 0 1.140625 0.453125q0.546875 0.59375 0.546875 1.296875l0 4.59375l0.5625 0q0.234375 0 0.328125 0.09375q0.109375 0.078125 0.109375 0.234375q0 0.140625 -0.109375 0.234375q-0.09375 0.09375 -0.328125 0.09375l-1.21875 0l0 -5.1875q0 -0.5 -0.3125 -0.828125q-0.296875 -0.328125 -0.6875 -0.328125q-0.359375 0 -0.765625 0.28125q-0.390625 0.265625 -0.90625 1.046875l0 4.359375l0.546875 0q0.234375 0 0.328125 0.09375q0.109375 0.078125 0.109375 0.234375q0 0.140625 -0.109375 0.234375q-0.09375 0.09375 -0.328125 0.09375l-1.203125 0l0 -5.140625q0 -0.515625 -0.3125 -0.859375q-0.3125 -0.34375 -0.6875 -0.34375q-0.359375 0 -0.703125 0.234375q-0.46875 0.3125 -1.0 1.09375l0 4.359375l0.5625 0q0.234375 0 0.328125 0.09375q0.109375 0.078125 0.109375 0.234375q0 0.140625 -0.109375 0.234375q-0.09375 0.09375 -0.328125 0.09375l-1.765625 0q-0.234375 0 -0.34375 -0.09375q-0.09375 -0.09375 -0.09375 -0.234375q0 -0.15625 0.09375 -0.234375q0.109375 -0.09375 0.34375 -0.09375l0.546875 0l0 -5.453125l-0.546875 0q-0.234375 0 -0.34375 -0.09375q-0.09375 -0.09375 -0.09375 -0.234375q0 -0.140625 0.09375 -0.234375q0.109375 -0.09375 0.34375 -0.09375l1.203125 0zm14.4765625 6.765625l0 -0.953125q-1.421875 1.21875 -3.046875 1.21875q-1.1875 0 -1.859375 -0.59375q-0.65625 -0.609375 -0.65625 -1.484375q0 -0.953125 0.875 -1.65625q0.875 -0.71875 2.5625 -0.71875q0.453125 0 0.984375 0.0625q0.53125 0.0625 1.140625 0.1875l0 -1.0625q0 -0.546875 -0.5 -0.9375q-0.5 -0.40625 -1.5 -0.40625q-0.765625 0 -2.140625 0.453125q-0.25 0.078125 -0.328125 0.078125q-0.125 0 -0.21875 -0.09375q-0.078125 -0.09375 -0.078125 -0.234375q0 -0.140625 0.078125 -0.21875q0.109375 -0.109375 0.875 -0.3125q1.21875 -0.328125 1.84375 -0.328125q1.25 0 1.9375 0.609375q0.703125 0.609375 0.703125 1.390625l0 4.34375l0.875 0q0.234375 0 0.328125 0.09375q0.109375 0.078125 0.109375 0.234375q0 0.140625 -0.109375 0.234375q-0.09375 0.09375 -0.328125 0.09375l-1.546875 0zm0 -3.265625q-0.453125 -0.140625 -0.96875 -0.203125q-0.515625 -0.0625 -1.09375 -0.0625q-1.421875 0 -2.234375 0.625q-0.609375 0.453125 -0.609375 1.09375q0 0.59375 0.46875 1.0q0.46875 0.40625 1.359375 0.40625q0.84375 0 1.578125 -0.328125q0.734375 -0.34375 1.5 -1.09375l0 -1.4375zm9.9296875 -2.296875l0 -1.203125l1.53125 0q0.234375 0 0.328125 0.09375q0.109375 0.09375 0.109375 0.234375q0 0.140625 -0.109375 0.234375q-0.09375 0.09375 -0.328125 0.09375l-0.875 0l0 6.5625q0 0.65625 -0.28125 1.171875q-0.1875 0.34375 -0.625 0.703125q-0.4375 0.375 -0.796875 0.53125q-0.359375 0.15625 -0.96875 0.15625l-1.859375 0q-0.234375 0 -0.34375 -0.09375q-0.09375 -0.078125 -0.09375 -0.234375q0 -0.140625 0.09375 -0.234375q0.109375 -0.09375 0.34375 -0.09375l1.890625 0q0.578125 0 1.03125 -0.296875q0.46875 -0.296875 0.78125 -0.859375q0.171875 -0.328125 0.171875 -0.84375l0 -1.96875q-1.0625 1.4375 -2.71875 1.4375q-1.359375 0 -2.34375 -1.0q-0.96875 -1.0 -0.96875 -2.421875q0 -1.40625 0.96875 -2.40625q0.984375 -1.0 2.34375 -1.0q1.65625 0 2.71875 1.4375zm0 1.96875q0 -1.15625 -0.796875 -1.953125q-0.796875 -0.796875 -1.890625 -0.796875q-1.109375 0 -1.90625 0.8125q-0.78125 0.796875 -0.78125 1.9375q0 1.15625 0.78125 1.96875q0.796875 0.796875 1.90625 0.796875q1.09375 0 1.890625 -0.796875q0.796875 -0.8125 0.796875 -1.96875zm10.9453125 0.359375l-6.6875 0q0.171875 1.28125 1.0625 2.0625q0.890625 0.765625 2.21875 0.765625q0.734375 0 1.53125 -0.234375q0.8125 -0.25 1.3125 -0.640625q0.15625 -0.125 0.265625 -0.125q0.125 0 0.21875 0.109375q0.09375 0.09375 0.09375 0.21875q0 0.140625 -0.125 0.265625q-0.375 0.390625 -1.34375 0.734375q-0.953125 0.34375 -1.953125 0.34375q-1.6875 0 -2.828125 -1.109375q-1.125 -1.109375 -1.125 -2.6875q0 -1.421875 1.0625 -2.4375q1.0625 -1.03125 2.625 -1.03125q1.609375 0 2.640625 1.046875q1.046875 1.046875 1.03125 2.71875zm-0.671875 -0.65625q-0.1875 -1.09375 -1.03125 -1.765625q-0.828125 -0.6875 -1.96875 -0.6875q-1.15625 0 -1.984375 0.671875q-0.828125 0.671875 -1.03125 1.78125l6.015625 0zm3.9921875 -5.75l2.078125 0l-0.546875 3.796875q-0.046875 0.296875 -0.171875 0.421875q-0.125 0.109375 -0.3125 0.109375q-0.203125 0 -0.328125 -0.109375q-0.125 -0.125 -0.171875 -0.421875l-0.546875 -3.796875zm3.359375 0l2.078125 0l-0.546875 3.796875q-0.046875 0.296875 -0.171875 0.421875q-0.125 0.109375 -0.3125 0.109375q-0.203125 0 -0.328125 -0.109375q-0.125 -0.125 -0.171875 -0.421875l-0.546875 -3.796875z" fill-rule="nonzero"/><path fill="#666666" d="m17.015049 41.15961c-2.9119072 0 -5.205819 0.8449478 -6.881733 2.5348358c-1.670682 1.689888 -2.5060196 3.9269562 -2.5060196 6.7112045c0 1.7153397 0.3613696 3.1990852 1.0841084 4.451229c0.72797966 1.2521477 1.6130753 2.2065277 2.655281 2.863144c1.0474453 0.6566124 2.0844193 1.2368774 3.110921 1.7407913c1.0317335 0.49882126 1.9089746 0.99764633 2.631713 1.4964676c0.72797966 0.49882507 1.0919647 1.0460014 1.0919647 1.6415329c0 1.1554375 -0.67560387 1.7331543 -2.0268116 1.7331543c-1.3512087 0 -3.7498617 -0.48355103 -7.1959686 -1.4506569l-0.5263424 6.986065c2.8647728 0.90602875 5.800249 1.3590393 8.806419 1.3590393c3.006178 0 5.3288975 -0.81185913 6.9681473 -2.4355774c1.6444912 -1.6288147 2.4667416 -3.9269638 2.4667416 -6.8944473c0 -1.6288109 -0.3613701 -3.0667458 -1.0841084 -4.313801c-0.7227402 -1.2521477 -1.5999813 -2.214161 -2.6317139 -2.8860474c-1.0317345 -0.6718826 -2.063467 -1.2496033 -3.0952091 -1.7331543c-1.0265026 -0.48864365 -1.9011192 -0.95183563 -2.6238575 -1.389576c-0.72273827 -0.43774414 -1.0841084 -0.8907547 -1.0841084 -1.3590393c0 -1.1910667 0.7567787 -1.786602 2.2703438 -1.786602c1.1888504 0 3.3753948 0.36139297 6.559643 1.0841789l0.96627045 -7.505249c-3.058546 -0.5649948 -6.0437717 -0.8474922 -8.955681 -0.8474922z" fill-rule="evenodd"/><path fill="#666666" d="m33.068394 40.365566c-1.5449886 0 -2.655281 0.29776764 -3.330885 0.8933029c-0.6756058 0.59044266 -1.0134068 1.5117378 -1.0134068 2.7638855c0 1.2521477 0.33780098 2.160717 1.0134068 2.7257118c0.67560387 0.5599022 1.7858963 0.8398514 3.330885 0.8398514c1.5449867 0 2.655281 -0.2875862 3.330883 -0.86275864c0.6756058 -0.58026123 1.0134048 -1.4888344 1.0134048 -2.7257118c0 -1.2368774 -0.33779907 -2.1505356 -1.0134048 -2.7409782c-0.67560196 -0.5955353 -1.7858963 -0.8933029 -3.330883 -0.8933029zm-3.9593544 8.161865l0 22.23325l7.965843 0l0 -22.23325z" fill-rule="evenodd"/><path fill="#666666" d="m54.470955 47.72575c-2.4300766 0 -4.5302086 0.73550797 -6.3004 2.2065277l-0.18854141 0l-0.48706055 -1.6415329l-7.38451 0l0 22.469936l8.115105 0l0 -15.155563c0.60751724 -0.43774414 1.3616791 -0.6566162 2.2624855 -0.6566162c0.70702744 0 1.0605431 0.39193344 1.0605431 1.1757965l0 14.636383l8.209373 0l0 -15.155563c0.6127548 -0.43774414 1.3695374 -0.6566162 2.2703438 -0.6566162c0.70702744 0 1.0605392 0.39193344 1.0605392 1.1757965l0 14.636383l8.201519 0l0 -17.308647c0 -1.9087601 -0.4268341 -3.339058 -1.2805023 -4.2908936c-0.84843445 -0.95692825 -2.3358154 -1.4353905 -4.4621277 -1.4353905c-2.1210861 0 -4.066719 0.73550797 -5.8369064 2.2065277l-0.48706436 0.4199295c-0.7384529 -1.7509727 -2.3227196 -2.6264572 -4.752796 -2.6264572z" fill-rule="evenodd"/><path fill="#666666" d="m84.24987 54.436954c0.6913147 0 1.1495743 0.39956665 1.3747711 1.1987038c0.22520447 0.7940445 0.3378067 1.9342117 0.3378067 3.420498c0 1.4862862 -0.015716553 2.4966583 -0.04714203 3.0311127c-0.031417847 0.52936554 -0.10474396 1.0689049 -0.21996307 1.6186295c-0.10997772 0.5446358 -0.2854309 0.91875076 -0.52633667 1.1223488c-0.24091339 0.20360565 -0.6441803 0.30540466 -1.2098083 0.30540466c-0.56038666 0 -1.1469498 -0.14251709 -1.7597122 -0.4275589l0 -9.704144c0.6756058 -0.3766632 1.3590622 -0.5649948 2.0503845 -0.5649948zm2.6317139 -6.665394c-2.6395721 0 -4.4097595 0.64134216 -5.310562 1.9240303l-0.23567963 0l-0.48706055 -1.4048462l-6.6617737 0l0 28.89864l8.115105 0l0 -6.947891l0.18854523 0c0.96364594 0.6922455 2.1551208 1.0383682 3.5744095 1.0383682c3.0533142 0 5.1508255 -0.9925537 6.292549 -2.9776688c1.1469574 -1.9901962 1.7204285 -5.01622 1.7204285 -9.078064c0 -4.0669365 -0.53943634 -6.9911575 -1.6183014 -8.772667c-1.0788727 -1.786602 -2.938095 -2.6799011 -5.5776596 -2.6799011z" fill-rule="evenodd"/><path fill="#666666" d="m96.67864 40.693874l0 24.905514c0 2.0360107 0.5237274 3.4841232 1.5711746 4.344345c1.0474472 0.8551178 2.6317139 1.2826843 4.7527924 1.2826843l2.655281 0l0.6284714 -6.6577606c-0.6127548 0 -1.0395889 -0.109436035 -1.2805023 -0.3283081c-0.24092102 -0.21886444 -0.3613739 -0.59298325 -0.3613739 -1.1223488l0 -22.424126z" fill-rule="evenodd"/><path fill="#666666" d="m117.57957 54.436954c1.4507141 0 2.1760712 0.73550797 2.1760712 2.2065277l0 1.1223526l-4.202881 0c0 -1.124897 0.12831116 -1.9596596 0.38493347 -2.5042953c0.2566223 -0.5497246 0.80391693 -0.82458496 1.6418762 -0.82458496zm0.19639587 -6.7112045c-6.824127 0 -10.236183 3.9091415 -10.236183 11.727428c0 3.6291924 0.8850937 6.4999695 2.655281 8.612328c1.7701874 2.107277 4.312866 3.1609116 7.6280365 3.1609116c2.7024155 0 5.404831 -0.40465546 8.107246 -1.213974l-0.67559814 -5.8179016c-3.0899734 0.71769714 -5.166542 1.0765381 -6.229698 1.0765381c-2.215355 0 -3.3230286 -1.1732483 -3.3230286 -3.5197525l10.998199 0c0.22520447 -2.9980278 0.3378067 -4.6853714 0.3378067 -5.0620346c0 -2.875866 -0.7148895 -5.0874863 -2.1446533 -6.6348534c-1.4297638 -1.5524597 -3.8022385 -2.3286896 -7.1174088 -2.3286896z" fill-rule="evenodd"/><path fill="#666666" d="m148.10654 41.15961c-2.9118958 0 -5.2058105 0.8449478 -6.881729 2.5348358c-1.6706848 1.689888 -2.506012 3.9269562 -2.506012 6.7112045c0 1.7153397 0.36135864 3.1990852 1.0841064 4.451229c0.7279663 1.2521477 1.6130676 2.2065277 2.6552734 2.863144c1.0474548 0.6566124 2.0844269 1.2368774 3.1109161 1.7407913c1.0317383 0.49882126 1.9089813 0.99764633 2.6317139 1.4964676c0.72798157 0.49882507 1.0919647 1.0460014 1.0919647 1.6415329c0 1.1554375 -0.67559814 1.7331543 -2.0268097 1.7331543c-1.3511963 0 -3.7498627 -0.48355103 -7.1959686 -1.4506569l-0.52633667 6.986065c2.8647766 0.90602875 5.800247 1.3590393 8.806412 1.3590393c3.0061798 0 5.328903 -0.81185913 6.968155 -2.4355774c1.6445007 -1.6288147 2.4667358 -3.9269638 2.4667358 -6.8944473c0 -1.6288109 -0.36135864 -3.0667458 -1.0841064 -4.313801c-0.72273254 -1.2521477 -1.5999756 -2.214161 -2.6317139 -2.8860474c-1.0317383 -0.6718826 -2.0634613 -1.2496033 -3.0951996 -1.7331543c-1.0265045 -0.48864365 -1.901123 -0.95183563 -2.6238708 -1.389576c-0.72273254 -0.43774414 -1.0841064 -0.8907547 -1.0841064 -1.3590393c0 -1.1910667 0.75679016 -1.786602 2.2703552 -1.786602c1.1888428 0 3.3753967 0.36139297 6.5596313 1.0841789l0.9662781 -7.505249c-3.058548 -0.5649948 -6.0437775 -0.8474922 -8.955688 -0.8474922z" fill-rule="evenodd"/><path fill="#666666" d="m169.65898 54.062836c0.8379669 0 1.3616791 0.31303787 1.5711823 0.9391136c0.20948792 0.6209831 0.31422424 1.9494781 0.31422424 3.9854927l0 1.3590355c0 2.030922 -0.112594604 3.374691 -0.33779907 4.031307c-0.22518921 0.6566086 -0.7489166 0.9849167 -1.571167 0.9849167c-0.82225037 0 -1.3459625 -0.3283081 -1.571167 -0.9849167c-0.22520447 -0.6566162 -0.33781433 -2.094551 -0.33781433 -4.313801l0 -1.1223526c0 -2.005474 0.11260986 -3.318699 0.33781433 -3.939682c0.22518921 -0.62607574 0.7567749 -0.9391136 1.5947266 -0.9391136zm0.02357483 -6.3370857c-3.4565735 0 -5.9992523 0.92383957 -7.6280365 2.7715225c-1.6235504 1.8425903 -2.435318 4.8202553 -2.435318 8.933002c0 4.1127396 0.8039093 7.108223 2.4117432 8.986443c1.6130676 1.8731384 4.171463 2.8097 7.675171 2.8097c3.508957 0 6.035919 -0.9365616 7.5809174 -2.8097c1.5449829 -1.8782196 2.3174744 -4.888973 2.3174744 -9.032253c0 -4.143284 -0.788208 -7.1209526 -2.3646088 -8.933002c-1.576416 -1.8171425 -4.09552 -2.7257118 -7.5573425 -2.7257118z" fill-rule="evenodd"/><path fill="#666666" d="m191.13652 47.72575c-3.053299 0 -5.38649 1.1198082 -6.9995728 3.3594208c-1.6078186 2.2345238 -2.4117432 5.1511116 -2.4117432 8.74976c0 3.5935593 0.78034973 6.3905334 2.3410492 8.390915c1.5606995 2.0003815 3.8703156 3.0005722 6.9288635 3.0005722c1.7387695 0 3.7184448 -0.35884857 5.939041 -1.0765381l-0.8720093 -6.001152c-1.576416 0.34103394 -2.8569183 0.5115509 -3.841507 0.5115509c-0.9793701 0 -1.6235504 -0.38938904 -1.9325562 -1.1681595c-0.3037567 -0.7838669 -0.45562744 -2.051281 -0.45562744 -3.8022537c0 -1.7509727 0.159729 -3.041294 0.47920227 -3.8709679c0.32470703 -0.82967377 0.96102905 -1.2445107 1.9089813 -1.2445107c0.9531708 0 2.3619843 0.39192963 4.2264404 1.1757965l0.8720093 -6.8944473c-1.8382721 -0.7533226 -3.8991241 -1.1299858 -6.1825714 -1.1299858z" fill-rule="evenodd"/><path fill="#666666" d="m202.91779 40.365566c-1.5449829 0 -2.6552887 0.29776764 -3.3308868 0.8933029c-0.67559814 0.59044266 -1.0133972 1.5117378 -1.0133972 2.7638855c0 1.2521477 0.33779907 2.160717 1.0133972 2.7257118c0.67559814 0.5599022 1.7859039 0.8398514 3.3308868 0.8398514c1.5449829 0 2.6552734 -0.2875862 3.3308868 -0.86275864c0.67559814 -0.58026123 1.0133972 -1.4888344 1.0133972 -2.7257118c0 -1.2368774 -0.33779907 -2.1505356 -1.0133972 -2.7409782c-0.6756134 -0.5955353 -1.7859039 -0.8933029 -3.3308868 -0.8933029zm-3.9593506 8.161865l0 22.23325l7.9658356 0l0 -22.23325z" fill-rule="evenodd"/><path fill="#666666" d="m219.85822 61.613895l0 2.298149c0 1.2216072 -0.59443665 1.8324089 -1.7832794 1.8324089c-1.0003204 0 -1.500473 -0.58026123 -1.500473 -1.7407913c0 -0.77877045 0.24876404 -1.3310394 0.7463074 -1.6568031c0.5027771 -0.3308525 1.348587 -0.5751724 2.537445 -0.73296356zm0.1414032 -13.888145c-2.733841 0 -6.1589966 0.5166397 -10.275467 1.5499153l1.2019501 6.848633c3.2837524 -0.90602493 5.698105 -1.3590355 7.243103 -1.3590355c0.9008026 0 1.3512115 0.43774033 1.3512115 1.3132248l0 1.1223526c-3.5718079 0.31558228 -6.187805 0.9747429 -7.848007 1.977478c-1.6549683 0.9976425 -2.4824524 2.794426 -2.4824524 5.390339c0 2.0614624 0.50538635 3.687729 1.5161743 4.878792c1.0160217 1.1859818 2.474594 1.7789688 4.375717 1.7789688c2.4772186 0 4.3102417 -0.7965927 5.4990997 -2.3897705l0.24353027 0c0.6441803 1.5931778 2.1551208 2.3897705 4.532837 2.3897705c0.19377136 0 1.2229004 -0.061080933 3.0873566 -0.1832428l0.7305908 -5.6804733c-0.7436981 0 -1.2674255 -0.09925079 -1.571167 -0.29776764c-0.30377197 -0.20359802 -0.4556427 -0.6031647 -0.4556427 -1.1987l0.235672 -9.711777c0 -2.2192535 -0.547287 -3.8455162 -1.6418762 -4.878792c-1.0893402 -1.0332756 -3.0035553 -1.5499153 -5.74263 -1.5499153z" fill-rule="evenodd"/><path fill="#666666" d="m231.00397 40.693874l0 24.905514c0 2.0360107 0.5237274 3.4841232 1.5711823 4.344345c1.0474396 0.8551178 2.6317139 1.2826843 4.7527924 1.2826843l2.6552734 0l0.628479 -6.6577606c-0.61276245 0 -1.0395966 -0.109436035 -1.2805023 -0.3283081c-0.24092102 -0.21886444 -0.3613739 -0.59298325 -0.3613739 -1.1223488l0 -22.424126z" fill-rule="evenodd"/><path fill="#666666" d="m8.572282 87.69456l-0.94498396 26.759514l6.9811616 0l0 -13.965454l0.44685268 0l2.5199575 13.965454l7.244877 0l2.6591415 -13.965454l0.4029007 0l0 13.965454l7.069067 0l-0.94498444 -26.759514l-9.991924 0l-2.4320526 14.477493l-0.35894775 0l-2.5199566 -14.477493z" fill-rule="evenodd"/><path fill="#666666" d="m47.01152 99.45752c1.3527718 0 2.029152 0.6757126 2.029152 2.0271301l0 1.0310974l-3.9191208 0c0 -1.033432 0.11964798 -1.8003311 0.35894775 -2.300682c0.23929977 -0.5050278 0.74964523 -0.7575455 1.5310211 -0.7575455zm0.18313599 -6.1655655c-6.3633842 0 -9.545071 3.5913239 -9.545071 10.773956c0 3.3341217 0.82533646 5.9714966 2.4760056 7.912117c1.6506653 1.9359436 4.021675 2.9039154 7.113018 2.9039154c2.5199585 0 5.039913 -0.3717575 7.5598717 -1.1152725l-0.6299896 -5.344887c-2.8813438 0.6593399 -4.8177032 0.9890137 -5.809086 0.9890137c-2.0657806 0 -3.098671 -1.077858 -3.098671 -3.2335892l10.255642 0c0.20999908 -2.7542725 0.3149948 -4.3044357 0.3149948 -4.6504745c0 -2.6420517 -0.66661835 -4.6738586 -1.9998512 -6.095421c-1.3332329 -1.4262314 -3.5455208 -2.1393585 -6.6368637 -2.1393585z" fill-rule="evenodd"/><path fill="#666666" d="m66.79499 99.373344c0.64463806 0 1.2819595 0.17068481 1.9119492 0.5120468l0 8.92218c-0.57138824 0.2571869 -1.1207962 0.38578033 -1.6482315 0.38578033c-0.52254486 0 -0.8961487 -0.09118652 -1.1207962 -0.27355194c-0.22464752 -0.18704987 -0.39069366 -0.53074646 -0.4981308 -1.031105c-0.10255432 -0.5050278 -0.16848755 -1.0007019 -0.19778442 -1.48703c-0.029304504 -0.4909973 -0.043952942 -1.4192276 -0.043952942 -2.784668c0 -1.365448 0.10499573 -2.412918 0.3149948 -3.1424026c0.20999908 -0.734169 0.63731384 -1.1012497 1.2819519 -1.1012497zm1.6848602 -12.54155l0 7.540367c-0.8692932 -0.72013855 -2.0999603 -1.0802078 -3.6920319 -1.0802078c-2.3099594 0 -4.080284 0.9048462 -5.310959 2.714531c-1.2306786 1.8096924 -1.8460159 4.503174 -1.8460159 8.080467c0 3.5772858 0.54697037 6.270775 1.6409035 8.08046c1.0988197 1.8096924 2.9985504 2.714531 5.6992073 2.714531c2.041359 0 3.5552902 -0.7318268 4.5417786 -2.1954727l0.22708893 0c0.51278687 1.4636459 1.9241562 2.1954727 4.2341156 2.1954727l3.010765 -0.16834259l0.6812668 -5.218628c-0.6299896 0 -1.06707 -0.09118652 -1.3112564 -0.27355957c-0.23929596 -0.18704987 -0.35894775 -0.55413055 -0.35894775 -1.1012421l0 -21.288376z" fill-rule="evenodd"/><path fill="#666666" d="m83.245674 86.53018c-1.4406738 0 -2.4760056 0.27355957 -3.1059952 0.8206711c-0.6299896 0.5424347 -0.94498444 1.3888321 -0.94498444 2.539177c0 1.1503372 0.3149948 1.9850388 0.94498444 2.504097c0.6299896 0.5143814 1.6653214 0.7715759 3.1059952 0.7715759c1.4406738 0 2.4760056 -0.26420593 3.1059952 -0.7926178c0.6299896 -0.5330887 0.94498444 -1.3677826 0.94498444 -2.5041046c0 -1.1363144 -0.3149948 -1.9756927 -0.94498444 -2.5181274c-0.6299896 -0.5471115 -1.6653214 -0.8206711 -3.1059952 -0.8206711zm-3.6920319 7.4982758l0 20.425613l7.4280167 0l0 -20.425613z" fill-rule="evenodd"/><path fill="#666666" d="m99.04234 106.05095l0 2.1113052c0 1.1222839 -0.5542908 1.6834259 -1.66288 1.6834259c-0.9327774 0 -1.3991623 -0.53308105 -1.3991623 -1.5992584c0 -0.7154541 0.23197174 -1.2228241 0.69592285 -1.5220947c0.4688263 -0.30395508 1.2575378 -0.52841187 2.3661194 -0.673378zm0.13185883 -12.758995c-2.5492554 0 -5.7431564 0.4746399 -9.581696 1.4239044l1.1207886 6.2918167c3.0620422 -0.8323593 5.3134003 -1.2485428 6.754074 -1.2485428c0.8399887 0 1.2599792 0.40215302 1.2599792 1.206459l0 1.0310974c-3.3306427 0.28993225 -5.7700195 0.8955002 -7.3181305 1.8167038c-1.5432281 0.9165344 -2.3148422 2.5672302 -2.3148422 4.9520874c0 1.8938599 0.4712677 3.3879013 1.4138107 4.482132c0.94742584 1.0895538 2.307518 1.6343307 4.0802765 1.6343307c2.309967 0 4.0192413 -0.7318268 5.127823 -2.1954727l0.22708893 0c0.6006851 1.4636459 2.0096207 2.1954727 4.2267914 2.1954727c0.18069458 0 1.1403275 -0.056114197 2.8789062 -0.16834259l0.6812668 -5.218628c-0.69348145 0 -1.1818466 -0.09118652 -1.4650955 -0.27355957c-0.2832489 -0.18704987 -0.42487335 -0.55413055 -0.42487335 -1.1012421l0.21976471 -8.92218c0 -2.0388184 -0.51034546 -3.5328674 -1.5310211 -4.482132c-1.0158005 -0.9492645 -2.800766 -1.4239044 -5.354912 -1.4239044z" fill-rule="evenodd"/><path fill="#666666" d="m128.16121 93.81101c0.8985901 0 1.4968262 0.2595291 1.7947388 0.77858734c0.30278015 0.5143814 0.45417786 1.4051971 0.45417786 2.6724472c0 1.2625732 -0.13430786 2.1393585 -0.40290833 2.6303558c-0.26860046 0.48632812 -0.82289124 0.7294922 -1.6628723 0.7294922l-1.2599869 0l0 -6.8108826zm-8.644043 -6.116455l0 26.759514l7.567192 0l0 -8.746819l2.0657883 0c3.0620422 0 5.3280487 -0.68974304 6.7980194 -2.0692139c1.4699707 -1.3794785 2.204956 -3.677826 2.204956 -6.89505c0 -3.2172241 -0.7813721 -5.529602 -2.3441467 -6.937134c-1.5578766 -1.4075317 -3.9410858 -2.1112976 -7.149643 -2.1112976z" fill-rule="evenodd"/><path fill="#666666" d="m152.50966 93.291954c-1.5920715 0 -2.7397156 0.107551575 -3.4429626 0.32266235c-0.7032471 0.21510315 -1.4016113 0.69675446 -2.0950775 1.4449387l-0.17581177 0l-0.45417786 -1.2485428l-6.570938 0l0 20.643059l7.4719696 0l0 -11.59462c0 -1.0895538 0.1880188 -1.8073502 0.5640564 -2.153389c0.3760376 -0.34603882 1.1476593 -0.5190582 2.3148499 -0.5190582l2.0731049 0l0.31498718 -6.89505z" fill-rule="evenodd"/><path fill="#666666" d="m162.86105 99.45752c1.3527527 0 2.0291443 0.6757126 2.0291443 2.0271301l0 1.0310974l-3.9191132 0c0 -1.033432 0.119644165 -1.8003311 0.35894775 -2.300682c0.23928833 -0.5050278 0.7496338 -0.7575455 1.5310211 -0.7575455zm0.18313599 -6.1655655c-6.363388 0 -9.545074 3.5913239 -9.545074 10.773956c0 3.3341217 0.82533264 5.9714966 2.475998 7.912117c1.6506805 1.9359436 4.0216827 2.9039154 7.113022 2.9039154c2.5199585 0 5.039917 -0.3717575 7.5598755 -1.1152725l-0.6299896 -5.344887c-2.8813477 0.6593399 -4.8177185 0.9890137 -5.8090973 0.9890137c-2.0657654 0 -3.0986633 -1.077858 -3.0986633 -3.2335892l10.255646 0c0.20999146 -2.7542725 0.31498718 -4.3044357 0.31498718 -4.6504745c0 -2.6420517 -0.6666107 -4.6738586 -1.9998474 -6.095421c-1.3332367 -1.4262314 -3.545517 -2.1393585 -6.636856 -2.1393585z" fill-rule="evenodd"/><path fill="#666666" d="m172.40353 93.81101l4.6370087 20.643059l10.621918 0l4.5930634 -20.643059l-7.3401184 0l-2.0731049 13.228958l-0.57870483 0l-1.9412537 -13.228958z" fill-rule="evenodd"/><path fill="#666666" d="m197.47491 86.53018c-1.4406738 0 -2.475998 0.27355957 -3.1059875 0.8206711c-0.6299896 0.5424347 -0.9449768 1.3888321 -0.9449768 2.539177c0 1.1503372 0.31498718 1.9850388 0.9449768 2.504097c0.6299896 0.5143814 1.6653137 0.7715759 3.1059875 0.7715759c1.4406891 0 2.4760132 -0.26420593 3.1060028 -0.7926178c0.6299896 -0.5330887 0.9449768 -1.3677826 0.9449768 -2.5041046c0 -1.1363144 -0.31498718 -1.9756927 -0.9449768 -2.5181274c-0.6299896 -0.5471115 -1.6653137 -0.8206711 -3.1060028 -0.8206711zm-3.6920166 7.4982758l0 20.425613l7.428009 0l0 -20.425613z" fill-rule="evenodd"/><path fill="#666666" d="m213.0445 99.45752c1.352768 0 2.0291595 0.6757126 2.0291595 2.0271301l0 1.0310974l-3.9191284 0c0 -1.033432 0.119644165 -1.8003311 0.35894775 -2.300682c0.23930359 -0.5050278 0.74964905 -0.7575455 1.5310211 -0.7575455zm0.18313599 -6.1655655c-6.363388 0 -9.545074 3.5913239 -9.545074 10.773956c0 3.3341217 0.8253479 5.9714966 2.4760132 7.912117c1.6506653 1.9359436 4.0216675 2.9039154 7.113022 2.9039154c2.5199585 0 5.0399017 -0.3717575 7.55986 -1.1152725l-0.6299896 -5.344887c-2.8813324 0.6593399 -4.8177032 0.9890137 -5.809082 0.9890137c-2.0657806 0 -3.0986633 -1.077858 -3.0986633 -3.2335892l10.2556305 0c0.21000671 -2.7542725 0.31500244 -4.3044357 0.31500244 -4.6504745c0 -2.6420517 -0.666626 -4.6738586 -1.9998474 -6.095421c-1.3332367 -1.4262314 -3.5455322 -2.1393585 -6.6368713 -2.1393585z" fill-rule="evenodd"/><path fill="#666666" d="m222.81407 93.81101l2.7470398 20.643059l8.050674 0l1.7141571 -8.704735l0.31500244 0l1.7507782 8.704735l8.24115 0l2.7470398 -20.643059l-6.666168 0l-0.9889374 10.430252l-0.40289307 0l-1.4870758 -10.430252l-6.2559357 0l-1.5310211 10.430252l-0.35894775 0l-0.94499207 -10.430252z" fill-rule="evenodd"/></g></svg>